<?xml version="1.0" encoding="UTF-8"?>
<svg id="Capa_2" data-name="Capa 2" xmlns="http://www.w3.org/2000/svg" viewBox="0 0 365.6 104">
  <defs>
    <style>
      .cls-1, .cls-2, .cls-3, .cls-4, .cls-5 {
        stroke-width: 0px;
      }

      .cls-2 {
        fill: #06a454;
      }

      .cls-3 {
        fill: #00a350;
      }

      .cls-4 {
        fill: #01a350;
      }

      .cls-5 {
        fill: #02a351;
      }
    </style>
  </defs>
  <g id="Capa_1-2" data-name="Capa 1">
    <path class="cls-4" d="m268.55,42.73c8.98-8.03,16.06-7.25,24.57,2.05,2.27-2.52,4.48-5.17,7.69-6.51,9.65-4.02,19.91,1.94,20.73,12.45.56,7.12.16,14.31.32,21.47.05,2.29-.96,2.92-3.01,2.74-1.16-.1-2.35-.16-3.49.01-3.57.53-5.09-.55-4.79-4.51.38-4.97.19-9.99.06-14.98-.15-5.56-2.59-8.37-7.02-8.43-4.03-.05-8.13,3.82-8.33,8.36-.23,5.32-.22,10.66-.01,15.99.11,2.88-.88,3.95-3.69,3.57-.98-.13-2.01-.14-2.99,0-3.6.54-5.12-.64-4.83-4.57.35-4.8.17-9.66.06-14.48-.13-5.74-2.71-8.74-7.33-8.79-4.71-.05-7.79,3.29-7.94,8.89-.13,4.99-.18,10,.03,14.99.13,3.01-.77,4.1-3.91,4-8.83-.28-7.42.86-7.5-7.37-.08-8.49.19-17-.11-25.48-.14-3.91,1.23-5.07,4.84-4.58,3.04.41,7.65-1.87,6.66,5.18Z"/>
    <path class="cls-3" d="m195.93,43.63c9.38-8.88,16.12-8.32,25.35.77,2.93-2.94,5.91-5.69,10.2-6.75,8.52-2.09,16.46,2.53,18.03,11.1,1.45,7.91.45,15.95.7,23.93.05,1.76-.79,2.34-2.43,2.26-1.33-.07-2.69-.17-3.99.02-3.86.55-5.36-.79-5.04-4.88.37-4.8.16-9.66.06-14.48-.12-5.81-2.32-8.46-6.84-8.48-4.58-.02-8.26,3.61-8.42,8.66-.16,4.99-.22,10,.03,14.99.16,3.26-.83,4.37-4.18,4.24-8.37-.32-7.11.88-7.25-7.15-.07-4.33.06-8.67-.26-12.97-.39-5.24-2.94-7.78-7.21-7.76-4.47.02-7.78,3.39-7.95,8.47-.17,5.16-.21,10.33.02,15.49.14,3.04-.73,4.34-3.88,3.89-1.47-.21-3-.14-4.49-.01-2.18.18-2.9-.73-2.89-2.87.07-10.49.1-20.99-.02-31.48-.03-2.53,1.02-3.24,3.28-3.04.99.09,2,.05,3,0,3.29-.16,6.6-.39,4.17,6.06Z"/>
    <path class="cls-3" d="m115.97,24.02c7.14-.16,12.07,2.82,16.19,7.54,1.54,1.77,1.57,2.98-.68,4.24-3.22,1.81-6.17,4.67-9.58.24-1.01-1.31-2.78-1.79-4.47-1.85-2.42-.08-4.85.26-5.7,2.94-.92,2.9.7,4.76,3.27,5.86,3.96,1.69,8.04,3.14,11.9,5.04,5.08,2.5,8.62,6.58,8.5,12.41-.12,6.26-3.3,10.84-9.29,13.54-9.54,4.3-21.1,1.28-26.45-7.1-1.46-2.29-1.46-3.64,1.23-4.9,3.37-1.58,6.48-4.18,9.35.83.83,1.45,2.62,2.37,4.66,2.45,3.39.14,6.99.62,8.2-3.59,1.1-3.82-1.95-5.24-4.71-6.46-2.73-1.2-5.6-2.05-8.35-3.21-7-2.96-11-9.13-10.13-15.4.91-6.52,6.7-11.58,14.25-12.44.82-.09,1.66-.13,1.81-.14Z"/>
    <path class="cls-4" d="m166.78,69.04c-5.35,6.07-10.68,7.58-16.77,5.38-6.12-2.22-8.35-7.33-8.59-13.35-.28-6.82-.11-13.65-.28-20.47-.06-2.52,1.08-3.19,3.32-3.04,1.66.11,3.34.14,4.99,0,2.38-.21,3.2.7,3.14,3.11-.15,5.66-.13,11.33-.01,16.99.07,3.65-.14,7.68,5.23,7.89,4.32.17,8.68-3.8,8.85-8.41.18-5.16.27-10.34-.04-15.48-.2-3.41,1.01-4.49,4.2-4.09,1.31.16,2.67.13,3.99,0,2.59-.25,3.5.78,3.47,3.41-.12,10.32-.12,20.65,0,30.98.03,2.51-.95,3.23-3.23,3.01-1.32-.13-2.71-.24-3.99.02-3.91.79-4.91-1.26-4.28-5.93Z"/>
    <path class="cls-3" d="m339.73,60.26c2.78,5.48,7.69,7.09,14.16,5.04,1.7-.54,3.07-1.45,4.95.16,4.69,4.02,4.64,6.16-1.16,8.32-8.46,3.16-16.78,2.7-23.75-3.53-6.33-5.66-7.67-12.96-4.84-20.92,2.95-8.32,12.9-13.71,21.71-11.9,9.41,1.93,15.26,9.84,14.76,19.49-.13,2.58-.81,3.45-3.42,3.39-7.31-.15-14.62-.05-22.42-.05Z"/>
    <g>
      <path class="cls-4" d="m57.34,61.91c4.64-4.76,8.56-8.91,12.63-12.88,1.18-1.15.9-2.4,1.14-3.68.34-1.77,1.51-2.85,3.39-2.86,2.01-.01,3.31,1.07,3.65,3.03.31,1.8-.5,3.45-2.25,3.76-2.6.46-4.03,2.27-5.67,3.9-3.35,3.32-6.45,6.94-10.07,9.93-3.55,2.93-3.49,6.36-2.87,11,2.04-2.54,4.56-3.64,4.74-6.91.1-1.92,1.92-2.77,3.92-2.52,1.89.24,2.94,1.47,3.03,3.23.1,1.93-.93,3.22-2.92,3.74-5.19,1.35-9.09,6.41-9.09,11.71,0,3.35.01,6.7-.02,10.05-.01,1.15-.2,2.52-1.57,2.55-1.37.03-1.65-1.3-1.65-2.47-.01-13.4,0-26.81,0-40.21,0-2.49,2.26-3.39,3.51-5.01.72-.94,2.54-1.64,2.04-2.75-.66-1.45-1.83-3.01-3.83-3.13-1.31-.08-2.46-.42-3.17-1.6-1.25-2.07-.83-3.92,1.17-5.11,2.07-1.23,3.86-.46,5,1.58.34.6.15,1.48.4,2.16.63,1.66,2.34,3.78,3.33,3.4,1.78-.68,3.05-2.74,4.44-4.3.08-.09-.57-.94-.97-1.35-2.61-2.65-5.29-5.24-7.86-7.92-.85-.89-1.87-1.06-2.96-1.3-2.15-.48-3.14-1.94-2.85-4.11.24-1.84,1.46-2.93,3.27-2.98,2.15-.06,3.5,1.1,3.72,3.31.08.84-.26,1.98.7,2.31,1.14.39,1.62-.9,2.24-1.55,1.73-1.81,4.06-3.14,3.97-6.31-.05-1.74,1.63-2.77,3.44-2.72,1.98.05,3.27,1.16,3.51,3.18.21,1.82-.65,3.13-2.38,3.76-1.01.37-2.08.26-3.06,1.08-5.29,4.4-5.16,7.74.96,11.32,2.54,1.48,3.1-1.4,4.09-2.82.44-.63.18-1.72.5-2.48.66-1.54,1.97-2.17,3.63-1.99,1.51.17,2.51,1.07,2.98,2.47.54,1.6.1,3.44-1.34,3.86-6.04,1.77-8.75,7.37-13.17,10.97-1.53,1.25-2.67,3.01-4.27,4.14-4.2,3-4.2,7.08-3.41,12.53Z"/>
      <path class="cls-4" d="m32.73,72.83c0-8.94-.06-17.88.05-26.82.02-2.04-.6-3.46-2.05-4.87-5.26-5.1-10.37-10.35-15.59-15.5-1.97-1.94-3.56-4.32-6.89-4.54-1.72-.11-2.47-1.93-2.25-3.75.2-1.68,1.23-2.72,2.85-3.01,1.79-.31,3.51.33,3.88,2.1,1.16,5.53,6.33,7.68,9.36,11.6.43.55,1.02,1.15,1.83.32,1.82-1.87,3.7-3.68,5.5-5.56.93-.97,0-1.61-.62-2.12-3.67-3.02-6-7.59-10.92-9.22-1.71-.57-2.19-2.29-1.74-4.06.47-1.82,1.82-2.71,3.59-2.6,1.76.11,3.17,1.09,3.3,2.96.4,5.76,5.97,7.45,8.76,11.31.48.66,1.11.23,1.59-.2.37-.33.75-.66,1.05-1.06,1.22-1.62,4.35-2.87,3.63-4.57-.98-2.28-3.13-4.43-5.83-5.42-.35-.13-.74-.16-1.07-.32-1.8-.88-2.61-2.34-2.04-4.27.5-1.72,1.8-2.65,3.66-2.55,2.07.12,3.54,1.48,3.32,3.31-.44,3.56,2.75,4.37,4.21,6.46.4.58,1.11.58,1.58,0,1.87-2.26,5.25-3.3,5.29-7.07.03-2.08,1.46-3.45,3.67-3.42,1.81.03,3.07,1.13,3.41,2.89.42,2.17-.68,3.68-2.76,4.17-1.4.33-2.46.93-3.46,1.94-6.82,6.88-13.62,13.77-20.57,20.51-1.69,1.64-1.79,2.76.09,4.04,7.34,5.01,8.8,12.01,8.44,20.56-.65,15.24-.15,30.54-.24,45.81,0,1.45,1.18,4.2-1.5,4.08-2.22-.1-1.51-2.73-1.52-4.35-.05-8.94-.02-17.88-.02-26.82Z"/>
      <path class="cls-5" d="m22.7,71.75c1.2-5.97.53-10.34-4.02-13.92-3.68-2.89-6.73-6.59-10.08-9.91-1.81-1.79-3.3-3.9-6.32-4.07-1.63-.09-2.35-1.72-2.26-3.37.1-1.83,1.11-3,2.93-3.34,1.64-.31,3.21.26,3.72,1.79,2.81,8.36,10.99,11.89,16.01,18.31.51-3.92,1.09-7.36-2.52-10.45-4.21-3.6-7.65-8.09-11.44-12.18-1.22-1.32-2.19-2.75-4.46-2.8-1.93-.05-2.9-1.78-2.69-3.79.19-1.85,1.37-2.92,3.17-3.11,1.81-.19,3.5.65,3.67,2.41.34,3.65,3.13,5.49,5.19,7.83,3.61,4.09,7.39,8.02,11.18,11.94,1.22,1.26,1.69,2.62,1.68,4.33-.03,13.64,0,27.28-.03,40.93,0,1.42.35,3.56-1.64,3.54-1.95-.02-1.59-2.14-1.6-3.57-.03-4.34-.12-8.69.04-13.03.08-2.18-.6-3.73-2.21-5.17-2.39-2.16-4.6-4.52-6.86-6.83-1.39-1.42-2.69-2.67-4.96-2.8-1.73-.1-2.7-1.68-2.6-3.53.1-1.85,1.2-2.98,2.96-3.33,1.63-.32,3.31.28,3.65,1.83.59,2.7,2.02,4.63,3.97,6.43,1.81,1.68,3.41,3.58,5.55,5.86Z"/>
      <path class="cls-2" d="m43.32,35.2c.07-1.14.27-1.9.15-2.61-1.37-7.72,1.45-13.54,7.55-18.3,2.52-1.97,5.23-4.1,6.05-7.71.35-1.52,2.09-2.05,3.71-1.71,1.78.38,2.83,1.54,2.9,3.38.06,1.66-.82,3.42-2.29,3.37-4.51-.16-6.05,3.71-8.89,5.82-4.67,3.47-5.96,7.9-5.87,13.74.36,22.69.16,45.38.12,68.07,0,1.83.75,4.85-1.94,4.72-2.38-.11-1.25-3.07-1.26-4.73-.09-18.35-.05-36.7-.06-55.05,0-4.36-3.3-8.5-7.6-9.42-2.14-.46-3.35-1.61-3.27-3.81.08-2.01,1.25-3.25,3.27-3.36,2.18-.11,3.36,1.06,3.83,3.22.48,2.22.6,2.19,3.6,4.36Z"/>
    </g>
    <path class="cls-1" d="m355.08,52h-15.41c1.88-3.72,4.45-5.16,8.09-5.09,3.31.06,5.59,1.43,7.31,5.09Z"/>
  </g>
</svg>